<?xml version="1.0" encoding="UTF-8" standalone="no"?>
<!DOCTYPE svg PUBLIC "-//W3C//DTD SVG 1.0//EN" "http://www.w3.org/TR/2001/REC-SVG-20010904/DTD/svg10.dtd">
<!-- Created with Inkscape (http://www.inkscape.org/) -->
<svg
   xmlns:svg="http://www.w3.org/2000/svg"
   xmlns="http://www.w3.org/2000/svg"
   version="1.0"
   width="800"
   height="600"
   id="svg2">
  <defs
     id="defs4" />
  <g
     id="layer1">
    <path
       d="M 402.97594,23.450893 C 383.08876,23.450893 366.15117,40.127323 366.15117,60.014497 L 365.10649,275.47859 L 426.74228,275.47859 L 426.74228,207.57476 L 739.62226,207.57476 C 759.50943,207.57476 776.18545,190.89807 776.18586,171.01115 L 776.18586,60.014497 C 776.18586,40.127323 759.50943,23.450893 739.62226,23.450893 L 402.97594,23.450893 z M 426.74228,73.595264 L 710.11021,73.595264 L 710.11021,157.43038 L 426.74228,157.43038 L 426.74228,73.595264 z M 53.532354,157.95272 C 33.64518,157.95272 16.96875,174.89032 16.96875,194.77749 L 16.96875,377.33434 C 16.96875,397.22152 33.645013,413.89803 53.532354,413.89795 L 393.57387,413.89795 C 413.46104,413.89795 430.13764,397.2216 430.13747,377.33434 L 430.13747,298.20026 L 311.30576,298.20026 L 311.30576,346.51645 L 379.9931,346.51645 L 379.9931,363.75358 L 85.133754,363.75358 L 85.133754,208.09709 L 341.86249,208.09709 L 341.86249,157.95272 L 53.532354,157.95272 z"
       id="rect3351"
       style="opacity:1;fill:#000000;fill-opacity:1;fill-rule:nonzero;stroke:none;stroke-width:6;stroke-linecap:square;stroke-linejoin:round;stroke-miterlimit:4;stroke-dasharray:none;stroke-opacity:1" />
    <path
       d="M 468.26809,226.90123 C 456.37409,226.90123 446.32992,237.20657 446.32992,249.10056 L 446.32992,277.0456 L 479.75951,277.0456 L 479.75951,260.33081 L 721.04202,260.33081 L 721.04202,302.37896 L 468.26809,302.37896 C 456.37409,302.37887 446.32992,312.42312 446.32992,324.31712 L 446.32992,389.3481 C 446.32992,401.24201 456.37426,411.28609 468.26809,411.28626 L 764.17211,411.28626 L 764.17211,377.85668 L 730.74253,377.85668 L 677.98647,377.85668 L 487.22149,377.85668 L 487.22149,335.80854 L 742.23395,335.80854 C 754.12794,335.80854 764.17211,325.76429 764.17211,313.87037 L 764.17211,249.10056 C 764.17211,237.20657 754.12794,226.90123 742.23395,226.90123 L 468.26809,226.90123 z"
       id="rect3388"
       style="opacity:1;fill:#08bad4;fill-opacity:1;fill-rule:nonzero;stroke:none;stroke-width:4;stroke-linecap:square;stroke-linejoin:round;stroke-miterlimit:4;stroke-dasharray:none;stroke-opacity:1" />
    <path
       d="M 36.817563,497.99424 C 32.538159,497.99424 29.002062,501.25538 27.415494,504.52345 C 25.828926,507.79153 25.473402,511.28717 25.587314,514.9702 C 25.701225,518.65322 26.349926,522.27941 27.937831,525.41694 C 29.525736,528.55447 32.616134,531.68499 36.817563,531.68499 L 148.33655,531.68499 C 148.4523,531.68499 148.82697,531.90194 149.6424,533.51317 C 150.45783,535.12439 151.12751,537.65492 151.20941,540.30355 C 151.29131,542.95217 150.88364,545.61325 150.16473,547.09393 C 149.44583,548.57461 149.15767,548.66094 148.33655,548.66094 L 29.766011,548.66094 L 29.766011,557.01834 L 148.33655,557.01834 C 152.61596,557.01834 156.15197,554.01837 157.73862,550.75029 C 159.32528,547.48222 159.68072,543.7254 159.5668,540.04238 C 159.45289,536.35936 158.80419,532.73317 157.21629,529.59564 C 155.62838,526.4581 152.53798,523.32759 148.33655,523.32759 L 36.817563,523.32759 C 36.701814,523.32759 36.327151,523.3718 35.51172,521.76058 C 34.696289,520.14936 34.026611,517.35765 33.944709,514.70903 C 33.862806,512.0604 34.27048,509.66049 34.989383,508.17981 C 35.708286,506.69913 35.996449,506.35163 36.817563,506.35163 L 155.38811,506.35163 L 155.38811,497.99424 L 36.817563,497.99424 z M 186.206,497.99424 C 181.9266,497.99424 178.3905,500.99421 176.80393,504.26228 C 175.21736,507.53036 174.86184,511.28717 174.97575,514.9702 C 175.08966,518.65322 175.73836,522.27941 177.32627,525.41694 C 177.67235,526.10074 178.1473,526.8555 178.63211,527.50629 C 178.1473,528.15708 177.67235,528.91183 177.32627,529.59564 C 175.73836,532.73317 175.08966,536.35936 174.97575,540.04238 C 174.86184,543.7254 175.21736,547.48222 176.80393,550.75029 C 178.3905,554.01837 181.9266,557.01834 186.206,557.01834 L 308.69407,557.01834 L 308.69407,548.66094 L 186.206,548.66094 C 185.38497,548.66094 185.09664,548.57461 184.37782,547.09393 C 183.659,545.61325 183.25124,542.95217 183.33315,540.30355 C 183.41505,537.65492 184.08473,534.86322 184.90016,533.252 C 185.71559,531.64077 186.09025,531.68499 186.206,531.68499 L 291.71811,531.68499 L 291.71811,523.32759 L 186.206,523.32759 C 186.09025,523.32759 185.71559,523.3718 184.90016,521.76058 C 184.08473,520.14936 183.41505,517.35765 183.33315,514.70903 C 183.25124,512.0604 183.659,509.39932 184.37782,507.91864 C 185.09664,506.43796 185.38497,506.35163 186.206,506.35163 L 308.69407,506.35163 L 308.69407,497.99424 L 186.206,497.99424 z M 325.40886,497.99424 L 325.40886,557.01834 L 333.76626,557.01834 L 333.76626,531.68499 L 448.15811,531.68499 C 448.24485,531.68499 448.33311,531.68741 448.41927,531.68499 C 448.48078,531.74875 448.67,531.94005 448.94161,532.46849 C 449.48484,533.52545 449.99949,535.71718 450.24745,538.47537 C 450.74338,543.99175 450.24745,551.42031 450.24745,557.27951 L 458.60485,557.27951 C 458.60485,551.9149 459.19639,544.53256 458.60485,537.95303 C 458.30908,534.66323 457.94303,531.32854 456.5155,528.55096 C 456.37919,528.2857 456.16223,528.02486 455.99316,527.76746 C 456.61462,527.02666 457.16353,526.23396 457.56017,525.41694 C 459.14674,522.14886 459.50227,518.39205 459.38835,514.70903 C 459.27444,511.02601 458.62574,507.39982 457.03784,504.26228 C 455.44993,501.12475 452.35953,497.99424 448.15811,497.99424 L 333.76626,497.99424 L 325.40886,497.99424 z M 475.31964,497.99424 L 475.31964,557.01834 L 483.67703,557.01834 L 483.67703,497.99424 L 475.31964,497.99424 z M 503.52585,497.99424 C 499.24636,497.99424 495.71035,500.99421 494.12378,504.26228 C 492.53713,507.53036 492.18169,511.28717 492.2956,514.9702 C 492.40943,518.65322 493.05821,522.27941 494.64612,525.41694 C 494.99211,526.10074 495.46715,526.8555 495.95196,527.50629 C 495.46706,528.15708 494.9922,528.91183 494.64612,529.59564 C 493.05813,532.73317 492.40951,536.35936 492.2956,540.04238 C 492.1816,543.7254 492.53721,547.48222 494.12378,550.75029 C 495.71026,554.01837 499.24644,557.01834 503.52585,557.01834 L 626.01392,557.01834 L 626.01392,548.66094 L 503.52585,548.66094 C 502.70473,548.66094 502.41649,548.57461 501.69767,547.09393 C 500.97876,545.61325 500.57109,542.95217 500.65299,540.30355 C 500.73481,537.65492 501.40457,534.86322 502.22,533.252 C 503.03535,531.64077 503.4101,531.68499 503.52585,531.68499 L 609.03796,531.68499 L 609.03796,523.32759 L 503.52585,523.32759 C 503.41001,523.32759 503.03544,523.3718 502.22,521.76058 C 501.40449,520.14936 500.7349,517.35765 500.65299,514.70903 C 500.57101,512.0604 500.97885,509.39932 501.69767,507.91864 C 502.4164,506.43796 502.70482,506.35163 503.52585,506.35163 L 626.01392,506.35163 L 626.01392,497.99424 L 503.52585,497.99424 z M 655.2648,497.99424 C 650.98548,497.99432 647.4493,501.25546 645.86273,504.52345 C 644.27625,507.79169 643.92064,511.28717 644.03455,514.9702 C 644.14855,518.65322 644.79717,522.27949 646.38507,525.41694 C 647.97306,528.55464 651.06337,531.68499 655.2648,531.68499 L 766.78379,531.68499 C 766.89963,531.68499 767.27421,531.90194 768.08964,533.51317 C 768.90515,535.12455 769.57475,537.65484 769.65665,540.30355 C 769.73864,542.95192 769.33088,545.61325 768.61197,547.09393 C 767.89316,548.57478 767.60491,548.66094 766.78379,548.66094 L 648.21325,548.66094 L 648.21325,557.01834 L 766.78379,557.01834 C 771.06328,557.01826 774.59921,554.01845 776.18586,550.75029 C 777.7726,547.48238 778.12796,543.7254 778.01404,540.04238 C 777.90022,536.35936 777.25143,532.73325 775.66353,529.59564 C 774.07571,526.45827 770.98522,523.32759 766.78379,523.32759 L 655.2648,523.32759 C 655.14914,523.32759 654.77439,523.37197 653.95896,521.76058 C 653.14361,520.14944 652.47385,517.35765 652.39195,514.70903 C 652.31013,512.06057 652.71772,509.66049 653.43662,508.17981 C 654.15561,506.6993 654.44369,506.35163 655.2648,506.35163 L 773.83535,506.35163 L 773.83535,497.99424 L 655.2648,497.99424 z M 333.76626,506.35163 L 448.15811,506.35163 C 448.27386,506.35163 448.64852,506.30742 449.46395,507.91864 C 450.27938,509.52987 450.94906,512.32157 451.03096,514.9702 C 451.11286,517.61882 450.7051,520.2799 449.98629,521.76058 C 449.26747,523.24126 448.97922,523.32759 448.15811,523.32759 L 333.76626,523.32759 L 333.76626,506.35163 z"
       id="path3407"
       style="fill:#000000;fill-opacity:1;fill-rule:evenodd;stroke:none;stroke-width:1px;stroke-linecap:butt;stroke-linejoin:miter;stroke-opacity:1" />
  </g>
</svg>
